<?xml version="1.0" encoding="utf-8"?>
<svg version="1.1" baseProfile="tiny" id="Layer_1" xmlns="http://www.w3.org/2000/svg" xmlns:xlink="http://www.w3.org/1999/xlink"
	 x="0px" y="0px" viewBox="0 0 272.3 81.9" xml:space="preserve">
<g>
	<g>
		<path fill="#4A4A4A" d="M169.5,31.2c1.2,0,2.3,0,3.7,0c1,7.5,2.1,15.1,3.1,22.7c-1.3,0-2.5,0-3.8,0c-0.7-5.3-1.4-10.7-2.1-16.1
			c-0.1,0-0.1,0-0.2,0c-1.8,5.4-3.6,10.7-5.5,16.1c-1.2,0-2.4,0-3.7,0c-1.8-5.3-3.7-10.7-5.6-16.1c-0.1,0-0.1,0-0.2,0
			c-0.6,5.3-1.3,10.7-1.9,16.1c-1.1,0-2.2,0-3.4,0c1-7.6,2.1-15.2,3.1-22.7c1.3,0,2.4,0,3.7,0c2.1,6.1,4.2,12.3,6.4,18.8
			C165.3,43.5,167.4,37.4,169.5,31.2z"/>
		<path fill="#4A4A4A" d="M203.4,36.6c0,5.9,0,11.5,0,17.3c-1.1,0-2.1,0-3.3,0c0-7.6,0-15.1,0-22.7c1.2,0,2.4,0,3.7,0
			c3.8,5.5,7.6,11.1,11.6,16.9c0-5.8,0-11.3,0-16.9c0.5,0,0.8,0,1.1-0.1c0.7,0,1.4,0,2.2,0c0,7.6,0,15.2,0,22.8c-1.1,0-2.2,0-3.4,0
			C211.4,48.3,207.5,42.6,203.4,36.6z"/>
		<path fill="#4A4A4A" d="M264.9,42.5c0,2-0.4,3.9-1.2,5.7c-2.4,4.9-7.2,6.6-11.6,6c-8-1-10.6-8.3-9.7-13.4c0.4-2.4,1.2-4.6,2.9-6.4
			c3-3.3,8-4.4,12.5-2.8c4.5,1.7,6.6,5.1,7.1,9.7C264.9,41.6,264.9,42.1,264.9,42.5z M261,42.4c0-1.5-0.3-3.2-1.1-4.7
			c-1.3-2.5-3.4-3.7-6.1-3.7c-2.7,0-5,1-6.3,3.5c-1.9,3.5-1.9,7.2,0.2,10.7c2.6,4.3,9.1,4.3,11.9,0.1C260.6,46.4,261,44.6,261,42.4z
			"/>
		<path fill="#4A4A4A" d="M141.7,50.1c0-1.8,0-3.5,0-5.3c-1.4,0-2.8,0-4.3,0c0-1,0-1.9,0-2.9c2.6,0,5.3,0,8,0c0,3.4,0,6.7,0,10.2
			c-0.4,0.2-0.8,0.6-1.3,0.8c-3.3,1.5-6.8,1.9-10.4,1c-6.3-1.6-8.8-7.6-8.2-12.7c0.9-7.6,7.1-11.1,13.8-10.2c1.9,0.2,3.6,0.7,5.3,2
			c-0.6,0.9-1.3,2-1.7,2.7c-1.5-1.1-2.7-1.3-4.1-1.5c-6.2-0.8-9.5,3.2-9.2,8.8c0.1,1.5,0.5,3,1,4.3c0.9,2.2,2.8,3.4,5.2,3.8
			C137.7,51.4,139.7,51.1,141.7,50.1z"/>
		<path fill="#4A4A4A" d="M116.7,31.2c1.2,0,2.3,0,3.4,0c0,0.5,0.1,0.9,0.1,1.3c0,4.1,0,8.1,0,12.2c0,1.1-0.1,2.2-0.3,3.3
			c-0.9,3.9-3.3,5.9-7.6,6.2c-1.5,0.1-3.1-0.1-4.6-0.4c-3.2-0.7-4.9-2.9-5.5-6c-0.2-0.8-0.2-1.7-0.2-2.5c0-4.5,0-9,0-13.4
			c0-0.2,0-0.4,0.1-0.7c1.2,0,2.4,0,3.6,0c0,0.5,0.1,0.9,0.1,1.4c0,4.1,0,8.1,0,12.2c0,0.9,0.1,1.9,0.3,2.8c0.5,2,1.8,3.2,3.9,3.5
			c0.2,0,0.4,0.1,0.6,0.1c3.7,0.4,6.2-1.6,6.2-5.4c0.1-4.3,0-8.6,0-12.9C116.7,32.3,116.7,31.8,116.7,31.2z"/>
		<path fill="#4A4A4A" d="M94,53.9c-0.6-1.6-1.2-3.2-1.8-4.9c-3.2,0-6.4,0-9.7,0c-0.6,1.6-1.2,3.2-1.8,4.9c-1.2,0-2.4,0-3.7,0
			c2.9-7.6,5.7-15.2,8.6-22.8c1.2,0,2.4,0,3.7,0c2.9,7.5,5.8,15.1,8.8,22.7C96.6,53.9,95.3,53.9,94,53.9z M87.3,35.4
			c-1.3,3.6-2.5,7-3.7,10.4c2.5,0,4.9,0,7.3,0C89.8,42.4,88.6,39.1,87.3,35.4z"/>
		<path fill="#4A4A4A" d="M182,53.9c0-7.6,0-15.1,0-22.7c4.1,0,8,0,12.2,0c0,0.9,0,1.9,0,3c-2.8,0-5.5,0-8.3,0c0,2.2,0,4.2,0,6.4
			c2.4,0,4.9,0,7.4,0c0,1.1,0,2,0,3c-2.5,0-4.9,0-7.4,0c0,2.5,0,4.8,0,7.3c2.9,0,5.7,0,8.6,0c0,1.1,0,2,0,3
			C190.3,53.9,186.2,53.9,182,53.9z"/>
		<path fill="#4A4A4A" d="M233.4,53.9c-1.3,0-2.5,0-3.9,0c0-3.3,0-6.6,0-9.8c0-3.2,0-6.5,0-9.9c-2.1,0-4.1,0-6.2,0c0-1.1,0-2,0-3
			c5.4,0,10.7,0,16.2,0c0,0.9,0,1.9,0,3c-2,0-4,0-6.1,0C233.4,40.9,233.4,47.4,233.4,53.9z"/>
	</g>
	<g>
		<g>
			<path fill="#4A4A4A" d="M39,7.9c-14.3,0-25.9,11.6-25.9,25.9c0,8.7,4.3,16.5,11,21.1c0.1-2.3,1.6-4.2,3.7-5.4
				c-4.9-3.5-8.2-9.3-8.2-15.8c0-10.7,8.7-19.4,19.4-19.4c10.7,0,19.4,8.7,19.4,19.4c0,6.3-3.1,11.9-7.7,15.5
				c1.3,1.2,2.1,2.9,2.2,4.8c0,0.6,0,1.1,0,1.6c7.2-4.6,12-12.7,12-21.9C64.9,19.5,53.3,7.9,39,7.9z"/>
		</g>
		<path fill="#93DF32" d="M42.7,24H35c-5.9,16.4-11.7,31-17.6,47.4H25c1.2-3.6,2.5-7.3,3.7-10.9l2.4-5.5c2.5-7.3,4.9-14,7.6-21.4
			c2.6,7.4,5,14.1,7.5,21.4l2.4,5.5c1.3,3.6,2.5,7.3,3.7,10.9h8.4C54.6,55,48.6,40.4,42.7,24z"/>
		<g>
			<path fill="#93DF32" d="M49.1,50.2c-3,1.8-6.5,2.9-10.2,2.9c-3.5,0-6.8-0.9-9.6-2.6c0.3,2.3-0.6,4.7-2.3,6.2
				c3.6,1.9,7.6,2.9,11.9,2.9c4.9,0,9.4-1.3,13.3-3.7C50.3,54.7,48.9,52.6,49.1,50.2z"/>
		</g>
	</g>
</g>
</svg>
